<?xml version="1.0" standalone="no"?>
<!DOCTYPE svg PUBLIC "-//W3C//DTD SVG 20010904//EN"
 "http://www.w3.org/TR/2001/REC-SVG-20010904/DTD/svg10.dtd">
<svg version="1.0" xmlns="http://www.w3.org/2000/svg"
 width="897.000000pt" height="993.000000pt" viewBox="0 0 897.000000 993.000000"
 preserveAspectRatio="xMidYMid meet">
<metadata>
Created by potrace 1.16, written by Peter Selinger 2001-2019
</metadata>
<g transform="translate(0.000000,993.000000) scale(0.100000,-0.100000)"
fill="#ffffff" stroke="none">
<path d="M932 9921 c-98 -16 -132 -63 -71 -100 17 -11 82 -32 143 -47 171 -42
204 -60 172 -92 -9 -10 -87 -64 -173 -122 -170 -113 -211 -156 -180 -187 22
-23 92 -32 247 -32 143 -1 243 -13 266 -32 26 -21 -13 -76 -202 -284 -133
-148 -201 -233 -229 -289 -30 -61 -31 -77 -5 -101 42 -38 118 -9 482 183 76
40 149 72 162 72 34 0 41 -29 32 -134 -22 -267 -19 -288 31 -307 42 -16 101
12 180 85 82 76 107 91 121 73 21 -25 30 -65 47 -203 20 -169 40 -245 71 -275
58 -54 110 17 164 225 47 182 70 259 86 284 14 21 16 21 43 8 15 -8 41 -32 56
-53 70 -92 120 -116 149 -70 8 12 22 63 31 112 9 50 23 100 31 113 31 48 70
26 294 -162 194 -163 287 -181 284 -55 -2 61 -22 119 -105 310 -82 189 -101
249 -87 273 13 23 40 18 238 -46 298 -96 372 -107 415 -63 30 29 31 46 5 104
-29 62 -67 108 -230 276 -81 83 -159 170 -174 194 -51 80 -27 102 203 192 176
68 214 105 145 138 -64 31 -431 -21 -584 -83 -66 -27 -120 -69 -120 -93 0 -32
40 -84 161 -209 133 -138 169 -184 169 -220 0 -57 -47 -53 -252 23 -121 44
-202 55 -226 31 -15 -15 -16 -100 -1 -153 6 -22 38 -102 70 -178 33 -76 62
-151 66 -167 10 -54 -8 -42 -172 108 -141 129 -205 160 -225 106 -6 -14 -10
-72 -10 -129 0 -117 -4 -135 -31 -135 -19 0 -44 33 -90 119 -13 24 -36 53 -51
64 -26 19 -29 19 -46 4 -22 -20 -33 -52 -67 -186 -27 -108 -49 -161 -65 -161
-22 0 -32 51 -40 195 -4 84 -13 162 -19 174 -27 50 -87 9 -171 -119 -61 -93
-90 -122 -107 -109 -18 15 -16 43 8 157 29 132 30 189 4 208 -29 22 -62 12
-215 -61 -219 -105 -223 -89 -30 110 132 136 156 170 148 212 -5 29 -44 40
-190 57 -161 18 -208 34 -208 69 0 30 17 45 148 132 123 81 151 112 134 149
-23 51 -206 93 -442 101 -74 2 -159 0 -188 -4z"/>
<path d="M5316 9908 c-3 -13 -8 -53 -11 -90 -4 -37 -12 -72 -20 -78 -10 -8
-40 3 -129 49 -240 123 -254 107 -105 -120 38 -59 69 -114 69 -123 0 -17 -19
-32 -100 -79 -43 -25 -55 -37 -55 -57 0 -21 12 -31 66 -60 85 -45 99 -57 99
-86 0 -23 -28 -50 -130 -126 -54 -41 -63 -73 -25 -88 14 -5 38 -10 53 -10 54
0 102 -20 102 -41 0 -11 -29 -77 -65 -145 -109 -209 -83 -226 101 -69 48 41
91 75 96 75 18 0 38 -50 49 -122 14 -95 30 -106 74 -53 17 20 41 50 55 67 l26
30 109 -56 c148 -75 209 -90 355 -84 93 4 129 10 190 33 162 60 280 164 349
308 50 104 65 175 64 307 0 254 -110 443 -318 546 -121 60 -207 77 -365 72
-113 -4 -136 -8 -230 -41 -58 -20 -118 -37 -133 -37 -20 0 -44 15 -81 50 -58
55 -83 62 -90 28z m701 -158 c166 -58 260 -206 271 -430 8 -174 -35 -304 -131
-399 -117 -116 -285 -151 -451 -92 -96 34 -162 95 -135 127 19 23 48 17 149
-31 52 -25 103 -45 113 -45 24 0 23 51 -3 125 -11 32 -20 64 -20 72 0 17 46
17 167 -3 84 -13 98 -13 111 -1 23 24 6 53 -85 142 -47 46 -82 88 -79 93 3 5
42 24 86 42 120 48 157 85 111 110 -11 5 -74 14 -141 19 -67 5 -126 13 -132
19 -6 6 1 31 22 72 50 99 33 108 -125 63 -78 -22 -99 -24 -120 -15 -49 23 -19
84 61 121 90 43 226 47 331 11z m-547 -240 c31 -84 38 -87 111 -60 33 12 63
19 66 16 3 -3 -9 -24 -26 -48 -17 -23 -31 -49 -31 -59 0 -15 53 -44 118 -64
33 -10 27 -23 -15 -30 -62 -11 -113 -25 -113 -32 0 -4 14 -31 31 -61 17 -30
28 -56 25 -59 -3 -3 -33 4 -68 16 l-63 22 -30 -33 c-17 -18 -38 -44 -48 -57
-9 -14 -19 -22 -23 -19 -3 3 -9 37 -12 75 l-7 68 -74 5 -75 5 57 54 c31 30 57
59 57 64 0 6 -26 34 -57 64 l-58 55 72 -5 c47 -3 76 0 82 7 5 6 17 39 26 74
10 34 21 62 25 62 4 0 18 -27 30 -60z"/>
<path d="M7515 9902 c-91 -43 -107 -89 -99 -275 8 -159 0 -203 -43 -237 -50
-39 -123 -15 -143 46 -14 43 -10 79 26 196 41 134 18 195 -94 240 -140 56
-653 7 -640 -60 2 -11 34 -25 100 -43 119 -33 192 -66 274 -124 58 -42 109
-93 101 -102 -3 -2 -46 -10 -98 -18 -175 -27 -294 -70 -270 -99 6 -7 77 -35
157 -61 224 -73 317 -148 300 -241 -10 -48 -53 -93 -100 -104 -75 -17 -146 15
-253 113 -24 23 -50 37 -60 35 -20 -4 -21 -25 -8 -139 5 -44 4 -78 -4 -102
-14 -42 -74 -99 -137 -130 -34 -16 -44 -26 -42 -42 5 -33 130 -47 428 -49 208
-1 271 2 345 17 194 39 343 106 435 197 103 102 144 216 142 390 -2 105 -9
147 -52 312 -28 106 -20 147 40 212 l39 41 -82 18 c-129 28 -214 31 -262 9z
m139 -114 c9 -12 16 -30 16 -40 0 -26 -36 -58 -64 -58 -32 0 -69 45 -60 74 14
49 81 63 108 24z m-56 -394 c35 -24 62 -87 62 -144 0 -63 -34 -134 -86 -180
-81 -71 -233 -120 -369 -119 l-70 0 55 18 c143 45 273 147 323 253 14 30 31
84 38 121 7 37 15 67 19 67 3 0 16 -7 28 -16z"/>
<path d="M1813 9900 c-49 -10 -83 -27 -83 -40 0 -6 25 -21 55 -35 68 -29 87
-61 61 -101 -18 -26 -33 -34 -178 -94 -77 -32 -97 -52 -77 -76 15 -18 67 -18
183 1 98 16 141 10 152 -19 7 -19 -19 -69 -76 -141 -80 -102 -88 -135 -32
-135 21 0 51 17 103 60 96 78 155 90 188 38 7 -12 19 -72 25 -132 12 -120 17
-136 46 -136 29 0 47 35 70 133 24 105 43 144 75 159 34 15 70 -10 142 -102
73 -91 85 -102 115 -98 36 5 33 44 -11 156 -47 115 -51 154 -19 176 29 21 54
20 151 -5 84 -21 127 -19 127 7 0 31 -21 53 -97 99 -171 105 -183 150 -55 214
84 42 34 71 -126 71 -110 0 -132 -9 -214 -86 -50 -47 -62 -54 -98 -54 -53 0
-87 18 -129 70 -46 58 -98 80 -186 79 -38 -1 -89 -5 -112 -9z"/>
<path d="M3432 9635 c-30 -7 -61 -20 -70 -28 -14 -14 -14 -20 -2 -43 30 -55
183 -137 247 -132 48 4 63 31 63 120 0 58 -3 69 -22 82 -28 20 -139 20 -216 1z"/>
<path d="M955 9225 c-81 -22 -125 -89 -125 -192 0 -52 22 -77 59 -68 79 19
261 182 261 234 0 21 -6 30 -22 35 -37 10 -120 6 -173 -9z"/>
<path d="M3157 8943 c-13 -12 -7 -38 23 -101 64 -136 299 -448 356 -474 63
-29 116 38 122 156 l4 69 -68 64 c-156 147 -410 314 -437 286z"/>
<path d="M7635 8613 c38 -94 16 -164 -77 -248 -90 -81 -259 -145 -384 -145
-67 0 -114 -43 -114 -105 0 -34 45 -83 88 -95 97 -27 269 1 385 62 78 41 196
157 228 223 20 41 24 65 24 135 0 73 -3 90 -23 118 -25 34 -57 54 -106 66 -25
6 -28 5 -21 -11z"/>
<path d="M1186 8596 c-60 -36 -86 -87 -86 -169 0 -80 15 -120 66 -177 66 -72
203 -126 304 -118 43 3 45 4 53 43 15 69 3 234 -21 287 -49 111 -114 158 -218
158 -44 0 -69 -6 -98 -24z"/>
<path d="M7305 8579 c-104 -38 -115 -40 -207 -37 -54 2 -98 2 -98 1 0 -2 6
-14 14 -26 8 -12 20 -48 27 -80 8 -37 22 -69 40 -88 25 -27 33 -29 96 -29 178
0 373 117 373 223 0 13 -9 36 -21 51 -30 38 -88 34 -224 -15z"/>
<path d="M5264 8572 c-67 -24 -97 -44 -129 -86 -48 -64 -69 -178 -44 -243 l11
-28 15 30 c59 115 196 165 303 110 l30 -16 -25 -33 c-41 -53 -34 -78 33 -125
31 -23 68 -57 81 -76 13 -19 29 -35 36 -35 20 0 88 80 114 133 35 72 51 144
51 230 0 88 -9 99 -67 78 -32 -12 -40 -10 -117 29 -71 36 -93 42 -161 46 -61
4 -92 0 -131 -14z"/>
<path d="M6282 8540 c-81 -37 -171 -59 -264 -66 -113 -8 -128 -15 -128 -57 1
-156 151 -368 320 -451 106 -51 201 -69 326 -62 121 8 197 26 281 67 116 56
145 132 103 270 -29 95 -72 180 -116 229 -44 49 -72 51 -168 15 -37 -14 -84
-25 -105 -25 -35 0 -43 5 -75 50 -35 48 -38 50 -83 50 -27 0 -67 -9 -91 -20z
m74 -290 c65 -17 203 -36 309 -43 52 -3 53 -24 1 -53 -97 -54 -248 -51 -365 9
-68 34 -128 95 -118 121 5 14 11 14 54 0 26 -8 80 -23 119 -34z"/>
<path d="M2590 8452 c-105 -35 -194 -111 -244 -211 -37 -72 -35 -86 9 -56 44
30 88 40 114 26 45 -25 52 -135 14 -250 -30 -96 -106 -151 -162 -120 -27 15
-42 49 -63 144 -11 51 -17 61 -36 63 -54 8 -88 -78 -80 -199 9 -122 72 -215
177 -262 32 -14 74 -22 136 -25 184 -8 324 52 483 207 27 26 44 37 47 29 2 -7
9 -33 15 -58 38 -155 121 -284 215 -332 24 -13 67 -23 107 -26 58 -4 75 -1
122 22 74 36 136 124 136 192 0 24 -1 24 -30 9 -68 -35 -95 10 -88 148 5 91
20 140 51 166 25 20 45 -12 52 -86 9 -105 12 -113 39 -113 39 0 61 72 60 195
-2 211 -93 325 -260 325 -114 0 -218 -62 -308 -181 l-44 -58 -4 97 c-8 166
-72 283 -185 338 -75 37 -189 44 -273 16z m194 -140 c12 -38 -55 -334 -105
-462 -34 -89 -69 -136 -92 -127 -22 8 -22 46 3 165 34 170 90 335 135 403 27
42 50 50 59 21z m154 -207 c18 -39 25 -93 17 -140 -7 -51 -45 -101 -102 -136
-35 -22 -36 -22 -50 -3 -32 41 19 245 72 291 29 26 48 22 63 -12z m455 -156
c-2 -108 -29 -226 -70 -308 -56 -108 -87 -93 -80 39 8 148 98 382 141 367 7
-3 10 -39 9 -98z m-210 -43 c-2 -60 -19 -119 -44 -150 -19 -24 -24 -26 -36
-14 -7 8 -17 39 -22 69 -8 50 -7 57 20 96 53 76 85 76 82 -1z"/>
<path d="M886 8388 c-43 -43 -56 -63 -66 -106 -25 -106 18 -210 104 -252 62
-29 168 -26 239 9 26 12 47 26 47 29 0 4 -25 18 -55 31 -64 27 -126 83 -154
139 -23 45 -45 155 -36 182 12 37 -24 22 -79 -32z"/>
<path d="M5757 8176 c-6 -64 -33 -128 -72 -174 -70 -83 -203 -128 -313 -106
l-31 6 24 36 c26 39 33 86 13 98 -6 4 -50 8 -97 8 -93 1 -147 21 -202 73 l-27
25 -16 -24 c-9 -13 -26 -54 -38 -91 -17 -58 -20 -86 -16 -175 6 -120 29 -196
75 -244 39 -41 60 -36 84 17 11 24 24 47 29 50 5 3 39 -3 76 -15 121 -37 293
-22 389 35 63 37 115 95 149 165 26 55 31 79 34 160 3 79 0 105 -18 153 -12
31 -25 57 -29 57 -5 0 -11 -24 -14 -54z"/>
<path d="M7756 8156 c-73 -125 -251 -224 -449 -249 l-89 -11 6 -31 c11 -55 72
-169 134 -251 107 -142 296 -302 376 -320 61 -13 94 70 116 295 13 132 13 485
0 532 -10 35 -43 79 -59 79 -5 0 -21 -20 -35 -44z"/>
<path d="M1708 8164 c-36 -19 -48 -43 -48 -97 0 -80 70 -132 145 -107 65 22
95 96 64 163 -23 51 -104 72 -161 41z"/>
<path d="M1271 7974 c-134 -36 -263 -138 -315 -249 -24 -50 -52 -154 -83 -308
-9 -44 19 -67 81 -66 28 1 87 -8 130 -20 136 -36 236 -23 368 46 114 60 223
197 262 331 18 63 15 75 -38 127 -27 26 -46 57 -56 90 -12 38 -21 51 -40 56
-47 13 -253 8 -309 -7z m189 -94 c11 -6 25 -29 32 -53 8 -25 29 -57 55 -83 49
-46 52 -60 22 -98 -49 -62 -142 -1 -190 124 -10 27 -19 59 -19 69 0 43 55 65
100 41z m-296 -122 c28 -104 41 -131 80 -175 24 -27 60 -58 80 -68 40 -22 41
-34 5 -53 -38 -20 -105 -9 -147 25 -54 44 -95 127 -89 180 6 61 60 130 71 91z"/>
<path d="M1864 7926 c-17 -8 -39 -24 -48 -37 -20 -29 -21 -91 -2 -128 41 -79
181 -62 205 24 26 96 -67 181 -155 141z"/>
<path d="M5920 7829 c-39 -16 -60 -49 -60 -97 0 -54 12 -77 50 -97 81 -42 160
8 160 100 0 70 -83 122 -150 94z"/>
<path d="M6180 7772 c0 -61 25 -210 47 -277 84 -263 226 -423 445 -503 68 -25
84 -27 243 -27 188 0 233 9 417 81 85 33 95 35 136 24 105 -26 203 -105 249
-199 25 -50 28 -67 28 -156 0 -94 -2 -104 -36 -175 -40 -84 -96 -150 -127
-150 -12 0 -32 15 -48 36 -38 49 -42 114 -15 266 12 68 21 148 19 178 -3 48
-6 55 -25 58 -34 5 -102 -35 -170 -101 -98 -93 -138 -196 -113 -287 17 -63
111 -152 220 -209 47 -24 87 -45 89 -47 2 -2 -21 -45 -50 -96 -29 -51 -67
-125 -84 -164 l-31 -72 -41 116 c-62 180 -159 429 -200 512 -48 99 -127 179
-206 208 -64 24 -194 49 -204 39 -12 -13 60 -113 194 -268 168 -195 250 -307
307 -424 52 -104 76 -191 75 -266 l0 -54 -14 37 c-23 62 -94 197 -137 262 -56
82 -152 181 -274 282 -137 113 -173 165 -223 316 -12 36 -35 86 -51 110 -29
43 -104 100 -148 113 -21 6 -22 4 -15 -22 12 -43 7 -110 -16 -200 -37 -144
-22 -237 49 -296 42 -36 80 -51 215 -89 149 -41 230 -85 306 -166 115 -122
189 -258 269 -490 l47 -135 28 49 c16 27 44 75 63 107 107 181 272 147 272
-55 0 -27 4 -48 9 -48 5 0 30 24 56 53 120 136 182 369 122 458 -20 30 -29 34
-70 37 -62 4 -93 -16 -182 -114 -61 -68 -116 -114 -137 -114 -4 0 -1 17 6 38
29 82 88 183 182 312 171 234 204 307 204 449 0 214 -98 359 -337 500 -65 39
-80 54 -169 177 -226 312 -380 400 -664 378 -63 -5 -173 -9 -245 -9 -137 0
-131 -1 -257 63 -5 2 -8 -19 -8 -46z m694 -251 c51 -100 101 -151 146 -151 33
0 50 23 50 69 0 16 5 42 11 58 l11 28 17 -22 c10 -12 21 -41 25 -63 10 -62 29
-93 96 -151 33 -28 60 -55 60 -59 0 -15 -26 -18 -84 -8 -78 12 -113 -1 -188
-68 -33 -30 -66 -54 -73 -54 -37 0 -16 52 51 133 29 35 30 53 5 67 -38 20 -88
11 -163 -30 -146 -80 -177 -93 -194 -79 -13 11 -8 19 35 63 82 83 62 124 -53
112 -34 -4 -90 -9 -126 -12 -119 -9 -120 34 -1 55 99 17 108 32 64 110 -25 45
-27 81 -4 81 5 0 44 -38 87 -86 72 -80 80 -85 113 -82 l36 3 3 75 c4 130 14
131 76 11z"/>
<path d="M5423 7565 c-103 -44 -65 -205 47 -205 114 0 150 162 45 206 -42 17
-51 17 -92 -1z"/>
<path d="M5755 7556 c-43 -18 -93 -79 -101 -121 -22 -117 60 -219 176 -219
116 0 198 102 176 219 -8 43 -59 103 -103 121 -41 17 -109 17 -148 0z"/>
<path d="M1745 7497 c-130 -196 -104 -436 56 -518 85 -43 202 -14 251 62 103
159 20 377 -184 478 -34 17 -67 31 -74 31 -8 0 -30 -24 -49 -53z"/>
<path d="M2820 7482 c-34 -34 -46 -88 -56 -245 l-7 -117 -38 66 c-87 149 -208
264 -295 280 -88 16 -164 -10 -195 -68 -18 -34 -30 -124 -23 -180 l6 -58 31
31 c29 30 34 31 97 27 85 -5 173 -47 258 -124 35 -31 61 -58 59 -61 -3 -2 -52
3 -110 11 -193 29 -289 18 -366 -43 -48 -38 -94 -111 -115 -182 -17 -56 -22
-209 -7 -209 5 0 21 20 35 43 81 140 298 257 473 257 l63 0 -29 -52 c-34 -60
-61 -154 -61 -211 0 -45 -15 -77 -35 -77 -24 0 -18 -48 22 -175 36 -117 36
-118 18 -151 -16 -30 -17 -39 -6 -77 7 -23 36 -79 63 -124 46 -75 50 -86 44
-125 -6 -43 -6 -43 65 -113 39 -39 82 -87 96 -109 23 -36 27 -38 65 -33 27 4
51 16 74 38 46 45 45 78 -5 135 -21 24 -49 69 -61 99 -13 32 -30 57 -41 60
-28 9 -35 30 -48 130 -16 117 -20 135 -37 135 -35 0 -42 71 -23 220 10 81 9
86 -10 99 -32 21 -26 51 38 176 l58 115 60 -63 c33 -35 70 -86 84 -113 22 -45
24 -61 24 -181 l-1 -131 31 15 c188 97 261 190 253 324 -3 49 -9 76 -24 96
-37 50 -103 92 -177 114 -40 11 -83 24 -97 28 -49 15 122 45 255 45 104 1 127
-3 170 -22 65 -30 83 -47 110 -105 l23 -48 16 22 c52 75 61 216 17 278 -106
149 -336 143 -592 -15 -41 -25 -78 -49 -83 -52 -13 -7 50 104 81 145 31 40 86
67 125 59 27 -5 29 -4 23 17 -21 68 -90 158 -154 199 -59 37 -104 37 -141 0z"/>
<path d="M5164 7426 c-42 -18 -64 -52 -64 -98 0 -71 43 -118 110 -118 67 0
109 42 110 110 0 54 -20 87 -66 106 -41 17 -50 17 -90 0z"/>
<path d="M1499 7300 c-20 -11 -55 -40 -77 -65 -132 -150 -27 -343 166 -306 63
12 70 24 38 62 -47 56 -69 110 -74 184 -2 39 0 87 6 108 9 32 8 37 -6 37 -9
-1 -33 -10 -53 -20z"/>
<path d="M890 7229 c0 -120 60 -189 163 -189 26 0 63 6 82 14 32 14 135 101
135 115 0 3 -46 6 -103 6 -118 1 -176 20 -239 83 l-38 36 0 -65z"/>
<path d="M5430 7258 c-59 -41 -75 -72 -75 -146 0 -81 25 -124 89 -153 124 -56
254 34 243 169 -7 93 -71 152 -167 152 -43 0 -65 -6 -90 -22z"/>
<path d="M6062 7264 c-53 -37 -66 -110 -29 -165 60 -90 200 -58 214 48 10 77
-40 133 -117 133 -25 0 -56 -7 -68 -16z"/>
<path d="M5094 7081 c-110 -50 -119 -208 -14 -278 66 -45 171 -22 218 47 20
29 23 45 20 95 -4 72 -26 106 -84 135 -50 25 -87 25 -140 1z"/>
<path d="M5783 7071 c-40 -25 -53 -49 -53 -101 0 -57 50 -110 104 -110 84 0
137 66 115 142 -20 74 -103 108 -166 69z"/>
<path d="M794 6978 c9 -85 31 -159 57 -192 67 -85 191 -73 355 36 38 26 80 59
94 74 l25 27 -35 -7 c-191 -40 -243 -43 -316 -21 -49 14 -116 68 -150 120 -28
42 -37 30 -30 -37z"/>
<path d="M6062 6916 c-35 -33 -37 -38 -37 -96 0 -58 2 -63 37 -96 31 -28 45
-34 83 -34 87 0 139 51 137 136 -1 77 -53 124 -137 124 -38 0 -52 -6 -83 -34z"/>
<path d="M5419 6847 c-64 -43 -64 -141 0 -184 94 -63 204 20 172 129 -22 72
-106 99 -172 55z"/>
<path d="M1572 6783 c-38 -54 -64 -117 -131 -316 -79 -233 -99 -279 -120 -275
-34 7 -32 83 4 248 28 128 38 237 25 275 -10 30 -16 35 -44 35 -69 0 -92 -50
-145 -315 -38 -192 -57 -245 -86 -245 -32 0 -40 41 -40 220 l0 175 -26 3 c-55
6 -100 -87 -137 -283 -13 -68 -17 -147 -17 -330 0 -267 13 -364 63 -465 47
-96 104 -104 180 -23 52 57 112 174 112 221 0 21 -13 57 -32 90 -37 65 -42
127 -15 179 37 70 83 62 152 -26 21 -28 45 -53 52 -55 23 -9 53 -70 53 -106 0
-52 -39 -126 -141 -271 -201 -285 -261 -438 -262 -664 -1 -183 41 -324 135
-450 50 -68 116 -127 232 -205 43 -30 80 -60 83 -67 9 -24 20 -14 43 40 15 34
24 80 28 134 7 119 -12 153 -186 328 -120 120 -142 148 -161 198 -26 72 -27
146 -1 228 29 94 32 95 68 44 17 -24 49 -53 71 -65 41 -20 197 -48 208 -36 3
3 -13 26 -36 51 -56 60 -74 106 -75 185 -1 95 30 179 172 465 150 302 207 432
261 597 68 209 74 319 20 348 -42 23 -82 -24 -123 -145 -63 -184 -190 -405
-233 -405 -25 0 -11 66 66 302 91 281 103 351 68 396 -18 22 -64 14 -85 -15z"/>
<path d="M5740 6764 c-45 -20 -68 -41 -91 -86 -22 -44 -25 -124 -5 -171 58
-140 276 -144 346 -7 36 70 18 184 -36 232 -52 46 -148 61 -214 32z"/>
<path d="M3415 6713 c5 -10 15 -43 23 -73 30 -110 -5 -172 -168 -292 -201
-148 -230 -181 -230 -256 0 -96 61 -166 239 -276 101 -62 161 -113 161 -136 0
-5 -8 -16 -17 -25 -29 -29 -95 -14 -174 40 -38 26 -75 45 -83 42 -25 -10 -96
-128 -116 -194 -25 -83 -26 -182 -1 -262 79 -255 410 -435 666 -362 l30 8 -45
12 c-78 21 -145 75 -180 144 -54 108 -39 188 69 369 67 111 101 189 101 226 0
60 -24 99 -110 183 -127 122 -130 155 -25 286 120 150 144 250 88 364 -30 60
-115 151 -180 192 -50 32 -58 33 -48 10z"/>
<path d="M2278 6663 c-183 -138 -304 -307 -364 -510 -21 -74 -27 -119 -34
-278 -8 -204 -19 -262 -57 -297 -35 -33 -94 -31 -131 5 -15 15 -33 27 -40 27
-17 0 -25 -43 -20 -101 4 -42 12 -58 42 -87 35 -36 39 -37 110 -37 68 0 78 3
113 31 21 16 49 52 63 80 24 47 25 57 31 314 7 269 14 319 53 390 14 24 14 23
9 -16 -9 -68 15 -204 61 -351 56 -177 69 -245 64 -334 -3 -60 -8 -74 -27 -90
-34 -27 -77 -25 -97 6 -32 49 -54 27 -54 -53 0 -143 174 -200 281 -93 86 86
79 195 -36 526 -80 231 -99 320 -92 434 5 86 30 180 40 151 2 -8 9 -52 15 -98
23 -175 104 -362 283 -658 118 -195 158 -281 159 -342 0 -110 -147 -129 -169
-22 -16 78 -91 4 -91 -90 1 -121 88 -200 222 -200 112 0 193 61 225 169 37
127 -2 220 -229 557 -172 255 -213 324 -257 436 -79 197 -78 375 3 561 13 28
-8 20 -76 -30z"/>
<path d="M5045 6607 c-89 -192 -84 -331 14 -426 26 -25 88 -68 136 -96 134
-74 185 -127 185 -190 0 -31 -41 -75 -70 -75 -11 0 -41 21 -68 49 -89 92 -155
113 -209 67 l-28 -24 0 -164 c0 -177 -3 -187 -59 -261 -20 -26 -36 -49 -36
-51 0 -8 115 16 165 35 74 28 142 80 220 172 61 72 100 98 124 82 19 -11 12
-40 -24 -109 -61 -117 -43 -196 55 -246 65 -33 160 -31 195 5 39 38 33 81 -19
158 -88 128 -93 161 -29 173 53 10 153 -2 171 -20 15 -15 14 -21 -10 -68 -21
-40 -24 -56 -16 -71 9 -18 17 -19 77 -13 88 8 253 50 311 78 56 29 60 50 20
105 -68 92 -303 256 -344 240 -16 -6 -17 -15 -11 -66 6 -56 5 -60 -19 -77 -54
-35 -167 2 -192 63 -31 73 22 141 147 188 140 52 169 68 204 106 19 22 35 45
35 52 0 7 -24 17 -59 24 -32 6 -98 30 -147 53 -133 63 -209 58 -240 -16 -11
-27 -13 -58 -8 -134 7 -97 6 -98 -18 -114 -59 -39 -80 14 -71 183 9 181 -12
218 -166 292 -96 45 -147 88 -156 130 -11 50 -25 42 -60 -34z"/>
<path d="M6104 6571 c-89 -55 -46 -201 59 -201 35 0 83 24 97 49 18 35 12 105
-11 130 -41 44 -96 52 -145 22z"/>
<path d="M6135 6239 c-4 -11 -4 -51 0 -88 8 -82 4 -87 -87 -93 -74 -4 -99 -18
-79 -42 7 -8 62 -45 123 -83 147 -90 202 -143 223 -217 14 -47 14 -62 4 -94
-35 -108 -176 -198 -364 -232 -81 -15 -105 -25 -105 -45 0 -13 43 -29 132 -51
48 -11 49 -24 8 -94 -38 -63 -51 -110 -30 -110 6 0 45 19 86 41 89 49 93 48
121 -51 21 -72 46 -90 63 -46 5 14 13 80 18 148 8 103 14 133 38 183 38 79
105 147 142 143 39 -4 69 -56 77 -133 10 -90 0 -142 -51 -274 -64 -165 -55
-190 40 -116 32 25 63 45 68 45 5 0 24 -17 41 -37 96 -111 105 -119 122 -102
14 14 14 24 1 105 -8 49 -12 92 -10 96 7 11 75 28 114 28 19 0 42 5 50 10 13
9 11 14 -10 31 -14 12 -47 32 -75 46 -72 37 -169 135 -205 206 -69 138 -11
200 117 127 60 -35 110 -94 177 -209 63 -110 86 -108 86 8 0 87 10 95 108 88
63 -5 83 -3 92 8 10 12 6 18 -20 32 -62 35 -124 78 -133 94 -8 13 0 31 36 82
26 36 47 73 47 81 0 25 -39 20 -114 -14 -87 -40 -175 -60 -261 -60 -83 0 -115
16 -115 59 0 66 84 120 233 151 116 23 127 28 127 50 0 14 -16 22 -71 35 -39
10 -73 24 -76 32 -3 8 9 45 27 84 50 109 31 125 -64 54 -79 -60 -77 -60 -140
18 -28 34 -45 47 -60 45 -24 -3 -24 -7 -11 -180 9 -124 -2 -182 -45 -228 -52
-56 -112 -26 -129 63 -8 43 9 192 24 217 2 3 9 37 15 74 19 123 -7 136 -96 51
-32 -30 -61 -55 -65 -55 -3 0 -25 27 -48 60 -37 52 -66 80 -85 80 -2 0 -8 -9
-11 -21z"/>
<path d="M7405 5525 c-46 -25 -66 -46 -86 -90 -24 -53 -24 -138 1 -193 l19
-42 -31 16 c-37 19 -131 29 -182 20 -44 -8 -104 -59 -122 -103 -18 -42 -18
-125 0 -166 17 -42 60 -78 133 -112 146 -68 185 -90 218 -122 46 -44 75 -102
82 -164 l6 -50 44 43 c160 155 262 410 250 623 -8 146 -58 256 -143 322 -46
34 -141 43 -189 18z"/>
<path d="M3718 5419 c-31 -48 -67 -126 -73 -162 -17 -88 19 -145 139 -227 39
-26 79 -57 90 -68 26 -30 23 -68 -9 -102 -97 -101 -381 -116 -571 -30 -38 17
-87 53 -132 94 -62 59 -75 67 -104 64 -43 -4 -60 -39 -66 -133 -16 -259 200
-529 478 -595 80 -19 240 -15 333 9 267 69 427 285 415 560 -8 177 -64 251
-262 346 -127 61 -159 91 -191 183 -33 93 -29 88 -47 61z m337 -699 c0 -37 -8
-71 -24 -103 -51 -106 -194 -212 -237 -176 -14 11 -16 27 -10 101 4 49 9 95
12 103 3 8 40 31 82 50 41 20 89 47 106 61 17 13 40 23 51 22 17 -3 20 -10 20
-58z"/>
<path d="M4962 5315 c-147 -33 -272 -98 -378 -198 -169 -158 -255 -353 -256
-582 -2 -314 161 -587 427 -715 105 -50 187 -70 315 -77 338 -18 619 161 729
463 22 61 51 195 51 239 0 2 -26 -10 -57 -26 -110 -55 -291 -85 -458 -76 -166
10 -283 51 -402 141 -69 53 -100 57 -120 16 -7 -14 -13 -47 -13 -73 l0 -49
-37 3 c-61 3 -63 2 -63 -41 0 -180 278 -256 547 -149 68 27 78 28 91 15 14
-14 14 -19 -2 -54 -24 -53 -18 -75 22 -83 49 -10 59 -23 42 -55 -32 -58 -190
-103 -320 -90 -98 10 -147 24 -237 68 -172 83 -290 265 -269 416 11 79 29 122
69 168 47 54 101 82 225 119 106 32 142 59 142 106 0 23 -9 40 -35 64 -38 37
-36 43 29 70 28 12 65 15 149 13 94 -3 117 0 140 15 73 47 30 134 -77 156 -64
14 -32 41 75 64 58 13 75 31 66 70 -5 17 -22 32 -54 48 -41 20 -66 24 -163 26
-71 2 -139 -3 -178 -12z"/>
<path d="M5485 5218 c34 -73 31 -113 -17 -252 -64 -183 -59 -284 21 -369 46
-50 98 -71 176 -71 162 0 255 117 242 305 -12 187 -151 350 -354 418 -94 31
-96 30 -68 -31z m204 -199 c43 -43 58 -97 37 -137 -18 -35 -47 -48 -75 -32
-36 19 -43 44 -30 113 19 104 20 104 68 56z"/>
<path d="M1724 5191 c-23 -10 -54 -36 -70 -57 -26 -33 -29 -45 -29 -111 0 -57
-3 -73 -14 -73 -8 0 -34 -10 -59 -21 -118 -58 -133 -224 -27 -305 42 -32 131
-44 185 -26 29 11 31 9 50 -27 48 -94 184 -115 279 -44 45 35 64 84 59 155
l-4 58 38 10 c21 6 55 27 77 48 138 132 2 358 -181 301 l-43 -14 -30 39 c-45
58 -75 76 -136 82 -40 4 -64 0 -95 -15z m186 -266 c58 -30 67 -95 21 -147 -22
-25 -36 -32 -66 -32 -30 0 -44 7 -66 32 -46 51 -37 116 19 146 35 19 56 20 92
1z"/>
<path d="M6000 4978 c0 -3 7 -22 16 -43 16 -40 14 -60 -17 -159 -53 -166 7
-276 150 -276 66 0 108 18 148 63 56 64 62 183 13 262 -48 78 -151 139 -253
151 -31 4 -57 4 -57 2z"/>
<path d="M2473 4830 c-90 -18 -143 -66 -143 -130 0 -57 35 -80 189 -124 168
-48 273 -118 320 -211 13 -26 35 -100 48 -164 32 -149 54 -200 113 -255 141
-132 392 -167 464 -64 61 86 -53 297 -196 363 -42 20 -69 25 -131 25 -93 0
-139 17 -155 56 -6 16 -28 83 -47 149 -40 132 -68 187 -129 253 -50 55 -115
88 -197 102 -72 11 -77 11 -136 0z m754 -691 c48 -23 113 -93 113 -121 0 -9
-11 -24 -23 -33 -22 -14 -29 -14 -78 2 -53 17 -149 95 -149 121 0 21 39 52 67
52 15 0 46 -9 70 -21z"/>
<path d="M5100 4805 c0 -3 8 -17 17 -31 15 -23 15 -35 4 -114 -10 -74 -10 -93
2 -122 54 -129 247 -82 247 59 0 89 -68 167 -173 198 -51 15 -97 20 -97 10z"/>
<path d="M6664 4760 c-73 -24 -130 -72 -240 -201 -113 -133 -236 -206 -411
-243 -17 -4 -44 -19 -59 -32 -24 -23 -26 -30 -21 -74 7 -62 41 -128 71 -140
31 -11 100 5 156 37 69 40 165 120 308 257 72 70 135 126 141 126 17 0 41 -31
41 -54 0 -59 -71 -133 -279 -290 -183 -139 -199 -179 -108 -270 65 -66 150
-107 234 -114 53 -4 70 -1 117 22 72 35 170 140 274 294 46 68 91 126 99 129
9 4 22 -2 30 -13 20 -27 11 -84 -26 -158 -64 -128 -180 -240 -326 -313 -89
-45 -105 -59 -105 -96 0 -71 65 -147 127 -147 48 0 141 67 258 185 149 150
253 301 307 447 78 209 12 462 -149 578 -87 62 -151 82 -273 86 -85 3 -117 0
-166 -16z m337 -131 c114 -57 165 -159 103 -208 -55 -43 -152 -36 -215 16 -41
34 -59 74 -59 125 1 91 69 118 171 67z"/>
<path d="M2153 4436 c-84 -27 -153 -85 -195 -166 -20 -39 -23 -59 -23 -156 0
-107 1 -112 38 -187 86 -173 252 -270 440 -255 142 12 221 95 222 233 0 55 -5
82 -26 125 -50 104 -142 171 -241 174 -43 1 -53 -3 -74 -27 -72 -84 19 -188
171 -193 78 -3 90 -15 60 -60 -22 -34 -73 -54 -133 -54 -128 0 -233 85 -261
211 -19 86 22 163 104 195 66 25 173 16 248 -21 153 -75 250 -277 218 -455
-28 -155 -130 -230 -315 -230 -272 0 -484 169 -550 441 -18 74 -21 210 -6 289
6 29 8 55 6 57 -17 17 -119 -64 -166 -132 -67 -98 -91 -271 -54 -396 89 -300
372 -522 694 -545 354 -26 567 177 547 520 -20 322 -190 565 -444 631 -69 18
-203 18 -260 1z"/>
<path d="M4015 4255 c-30 -29 -31 -46 -8 -130 14 -51 15 -69 5 -90 l-12 -26
-33 24 c-87 65 -195 61 -270 -11 -16 -15 -56 -80 -89 -144 -95 -187 -152 -220
-337 -198 -51 7 -99 9 -107 6 -35 -13 1 -109 62 -168 115 -109 327 -138 530
-73 210 67 335 200 333 354 0 36 -4 75 -8 86 -20 49 35 59 107 18 44 -24 50
-25 77 -12 58 28 70 94 25 139 -16 16 -17 20 -4 31 8 7 14 29 14 56 0 34 -6
50 -26 70 -23 23 -31 25 -75 20 -39 -5 -49 -3 -49 9 0 26 -47 64 -80 64 -19 0
-40 -9 -55 -25z"/>
<path d="M5840 3884 c-136 -22 -192 -45 -234 -94 -22 -27 -26 -41 -26 -100 0
-58 4 -73 24 -98 73 -86 368 -96 503 -16 62 36 73 57 73 142 0 68 -2 76 -29
102 -16 16 -51 35 -82 44 -57 16 -186 27 -229 20z"/>
<path d="M4306 3748 c-3 -18 -19 -60 -35 -93 -81 -171 -245 -288 -464 -331
-80 -16 -88 -19 -93 -43 -30 -130 -163 -195 -328 -161 -68 14 -91 33 -100 85
-12 64 -66 162 -125 227 -52 58 -132 118 -155 118 -7 0 -10 -22 -8 -59 5 -84
-19 -158 -69 -215 -77 -87 -187 -122 -357 -114 l-97 5 76 -71 c77 -72 178
-134 254 -155 22 -6 93 -16 158 -21 136 -11 156 -19 298 -121 219 -157 417
-219 697 -221 70 -1 156 4 192 11 94 17 234 66 318 110 39 21 72 33 72 27 0
-25 66 -90 114 -112 104 -48 364 -23 461 44 35 25 40 33 40 67 l0 40 -125 -3
c-148 -4 -243 12 -340 60 -82 40 -184 140 -229 226 -34 65 -64 88 -98 75 -10
-4 -55 -37 -101 -74 -148 -119 -279 -172 -464 -188 -152 -13 -296 11 -358 59
l-25 19 155 0 c318 -1 508 75 742 298 71 68 95 76 147 49 19 -11 41 -41 69
-98 56 -113 133 -197 222 -242 121 -60 213 -58 286 7 46 40 74 96 118 240 l37
117 39 0 c30 0 43 6 59 26 33 42 27 71 -24 118 -34 32 -47 52 -55 91 -6 27
-18 58 -27 67 -33 37 -113 12 -113 -35 0 -21 -4 -21 -120 3 -101 21 -239 26
-305 10 -36 -8 -41 -7 -65 19 -51 58 -185 147 -246 165 -18 6 -23 2 -28 -26z
m607 -372 c69 -64 29 -176 -62 -176 -46 0 -79 23 -97 66 -39 93 85 178 159
110z"/>
<path d="M6245 3558 c-55 -42 -186 -102 -270 -124 -107 -27 -271 -25 -362 4
-68 21 -75 22 -103 7 -42 -22 -123 -135 -160 -221 -95 -227 -40 -384 149 -425
65 -14 229 1 346 31 378 97 647 370 597 608 -13 64 -34 97 -82 130 -43 29 -67
27 -115 -10z m-97 -287 c-3 -40 -12 -68 -32 -99 -53 -79 -186 -147 -323 -166
-24 -4 -43 -5 -43 -4 0 2 7 35 15 73 8 39 15 93 15 122 l0 51 63 7 c107 11
170 26 232 54 33 16 64 26 69 23 4 -2 6 -30 4 -61z"/>
<path d="M4109 1910 c-122 -65 -238 -299 -286 -580 -25 -145 -23 -423 5 -570
18 -99 56 -248 77 -301 9 -23 -91 -128 -148 -157 -154 -77 -308 -37 -380 96
-38 69 -44 137 -22 235 24 110 18 254 -14 320 -28 57 -68 82 -117 72 -95 -17
-159 -148 -185 -374 -20 -178 -119 -311 -213 -287 -70 17 -136 140 -211 386
-91 297 -141 365 -233 316 -42 -23 -141 -130 -240 -261 -49 -66 -105 -135
-125 -153 l-35 -34 -20 22 c-21 23 -54 120 -72 210 -23 114 -42 130 -110 95
-50 -26 -68 -66 -124 -281 -30 -115 -73 -274 -95 -353 -46 -163 -52 -230 -21
-261 53 -53 129 -12 344 187 385 356 431 386 508 335 41 -27 65 -63 119 -179
134 -287 171 -341 245 -362 31 -8 45 -7 79 8 44 19 80 59 164 183 64 93 95
128 115 128 22 0 51 -35 102 -123 86 -149 164 -202 293 -199 135 2 232 36 362
127 44 31 90 60 103 65 28 10 43 1 146 -88 83 -71 132 -94 210 -99 87 -6 183
17 281 68 l79 41 46 -40 c60 -54 128 -76 225 -74 154 2 299 56 425 155 39 31
115 108 169 171 99 118 127 139 151 114 8 -7 36 -77 62 -155 55 -160 95 -225
161 -260 118 -62 283 3 414 162 66 80 155 249 196 370 65 196 89 409 55 493
-45 113 -200 64 -265 -83 -30 -68 -38 -215 -15 -301 38 -146 4 -324 -79 -407
-56 -55 -111 -29 -167 80 -43 82 -62 141 -128 386 -68 257 -96 317 -148 317
-48 0 -94 -64 -142 -195 -107 -297 -222 -488 -343 -568 -104 -69 -209 -82
-301 -37 l-46 22 72 51 c106 74 203 174 236 244 23 50 27 70 26 148 -1 104
-24 175 -79 248 -52 69 -97 92 -175 92 -85 0 -148 -34 -235 -127 -70 -74 -140
-203 -170 -313 -20 -74 -31 -287 -17 -336 9 -34 8 -37 -22 -55 -46 -27 -138
-25 -198 4 -62 31 -133 94 -165 149 l-26 45 81 166 c144 295 180 439 189 748
8 274 -17 391 -104 494 -60 72 -187 101 -264 60z m144 -330 c67 -79 63 -358
-8 -628 -35 -131 -87 -242 -115 -242 -46 0 -70 137 -70 395 0 237 33 423 86
480 33 35 75 33 107 -5z m753 -775 c52 -36 70 -154 38 -247 -18 -53 -68 -110
-124 -138 l-38 -19 -15 22 c-61 94 -61 270 0 339 26 29 74 58 98 58 11 0 30
-7 41 -15z"/>
<path d="M3245 1846 c-71 -32 -116 -112 -116 -207 -1 -123 85 -197 196 -168
165 43 206 312 58 375 -41 17 -99 17 -138 0z"/>
<path d="M1214 1746 c-46 -20 -103 -93 -121 -155 -23 -81 -13 -171 37 -320 55
-166 67 -260 51 -421 -31 -333 -131 -559 -281 -635 -143 -72 -321 -42 -417 70
-82 96 -119 223 -133 455 -13 206 -1 377 45 644 39 230 42 274 19 318 -15 29
-18 30 -72 26 -75 -5 -147 -41 -182 -89 -52 -73 -126 -350 -149 -561 -23 -205
-8 -456 35 -604 54 -186 160 -322 309 -395 102 -50 202 -71 335 -72 200 0 335
55 470 192 174 176 258 400 282 751 21 309 -5 618 -62 736 -34 68 -95 91 -166
60z"/>
<path d="M8614 1160 c-72 -13 -129 -40 -199 -93 -101 -78 -185 -199 -264 -384
-81 -187 -111 -245 -123 -241 -22 8 -56 67 -67 118 -6 27 -20 120 -31 207 -21
157 -34 217 -53 241 -16 20 -63 14 -95 -13 -37 -31 -55 -69 -88 -182 -14 -48
-47 -135 -74 -192 -134 -279 -312 -418 -499 -389 -82 13 -150 63 -123 90 5 5
61 31 126 57 179 75 240 120 287 213 51 100 43 217 -21 316 -64 100 -138 142
-247 142 -201 -1 -382 -179 -438 -433 -13 -59 -16 -109 -13 -200 4 -112 7
-127 36 -189 66 -137 181 -201 356 -200 172 2 301 57 432 187 78 76 165 196
193 263 8 18 17 32 21 32 4 0 17 -44 29 -98 57 -252 95 -348 152 -378 40 -20
90 -4 125 41 14 18 76 145 137 282 62 136 135 286 162 333 64 109 165 214 222
230 53 16 67 10 100 -44 33 -54 68 -76 137 -83 101 -10 167 45 174 147 9 125
-84 210 -245 224 -32 2 -81 1 -109 -4z m-1501 -334 c43 -18 63 -42 76 -93 24
-88 -37 -185 -151 -242 -88 -45 -105 -42 -114 15 -12 80 1 186 31 243 20 41
35 57 68 72 51 22 50 22 90 5z"/>
</g>
</svg>
